<?xml version="1.0"?>
<svg viewBox="0 0 554 1000" xmlns="http://www.w3.org/2000/svg" xmlns:svg="http://www.w3.org/2000/svg" class="FourOhFour-unicorn">
 <title>An animating image of a unicorn sheep</title>
 <g>
  <g fill="#FEFFFB" id="svg_1">
   <path class="FourOhFour-unicorn-leftWing" d="m159.2,495.3c-12.1,-10.2 -15.9,-32.1 -20.1,-46.3c-6.1,-20.7 -9,-47.5 -22.1,-65.3c-18.7,-25.4 -18.3,11.6 -15.2,24.4c-2.8,-3.8 -11.9,-15.6 -15.5,-8.4c-2.6,5.1 7.6,19.7 10.8,23.1c-18.6,-4.9 -19.7,9.3 -4,15.6c-13.2,3.7 -12.9,27.9 2.3,16.5c0.2,-0.3 0.2,-0.3 -0.1,0.1l0,0.1c-4.8,8.7 -2.3,27.1 10.6,17.1c3.6,23 37,-7.5 44,21.1l9.3,2z" id="svg_2"/>
   <path class="FourOhFour-unicorn-rightWing" d="m394.9,495.3c12.1,-10.2 15.9,-32.1 20.1,-46.3c6.1,-20.7 9,-47.5 22.1,-65.3c18.7,-25.4 18.3,11.6 15.2,24.4c2.8,-3.8 11.9,-15.6 15.5,-8.4c2.6,5.1 -7.6,19.7 -10.8,23.1c18.6,-4.9 19.7,9.3 4,15.6c13.2,3.7 12.9,27.9 -2.3,16.5c-0.2,-0.3 -0.2,-0.3 0.1,0.1l0,0.1c4.8,8.7 2.3,27.1 -10.6,17.1c-3.6,23 -37,-7.5 -44,21.1l-9.3,2z" id="svg_3"/>
  </g>
  <path fill="#C6BC9D" d="m183,758.6c-0.9,-9.5 -10.1,-14.8 -18.7,-15.1c-1.6,-0.1 -3.2,0 -4.8,-0.1c-1.1,0 -7.5,1.4 -7.6,3.6l0,0.3c3.7,32.4 13.6,63.6 25.4,94.1c8.4,-3.9 17.5,-6.3 26.5,-8.5c-9.8,-24 -18.3,-48.7 -20.8,-74.3z" id="svg_4"/>
  <path fill="#2F3238" d="m177.4,841.4c2,5.1 4,10.3 6.1,15.4c4.9,1.3 10,2.1 14.8,3.6c4,-3.8 8.5,-7.3 12.5,-11.4c-2.3,-5.4 -4.6,-10.7 -6.9,-16.1c-9.1,2.2 -18.2,4.6 -26.5,8.5z" id="svg_5"/>
  <path fill="#C6BC9D" d="m371,758.6c0.9,-9.5 10.1,-14.8 18.7,-15.1c1.6,-0.1 3.2,0 4.8,-0.1c1.1,0 7.5,1.4 7.6,3.6l0,0.3c-3.7,32.4 -13.6,63.6 -25.4,94.1c-8.4,-3.9 -17.5,-6.3 -26.5,-8.5c9.9,-24 18.3,-48.7 20.8,-74.3z" id="svg_6"/>
  <path opacity="0.1" d="m402.1,748.5c-0.1,-2.2 -6.5,-3.7 -7.6,-3.6c-1.6,0.1 -3.2,0 -4.8,0.1c-8.6,0.3 -17.8,5.6 -18.7,15.1c-1,10.2 -3,20.3 -5.6,30.3c9.2,5.1 19.8,3.4 29.1,-1.8c3.4,-13.1 6,-26.4 7.5,-39.8c0.1,-0.1 0.1,-0.2 0.1,-0.3zm-211.8,46.5c-3.5,-11.9 -6.1,-24 -7.3,-36.3c-0.9,-9.5 -10.1,-14.8 -18.7,-15.1c-1.6,-0.1 -3.2,0 -4.8,-0.1c-1.1,0 -7.5,1.4 -7.6,3.6l0,0.3c1.4,12.4 3.7,24.7 6.7,36.8c9.2,6.8 21.1,10.9 31.3,10.9c0.2,-0.1 0.3,-0.1 0.4,-0.1z" id="svg_7"/>
  <path fill="#FEFFFB" d="m470.6,661c-7.2,-9.4 -10.1,-22.3 -11.5,-35.1c-0.5,-4.8 -0.8,-9.6 -1,-14.1c0.1,-2.6 0.1,-5.2 0.1,-7.6c0,-66.9 -33.4,-133.8 -95.1,-158.2c-22.8,-9 -48.5,-13.4 -74,-13.4c-4.1,0 -8.2,0.1 -12.3,0.3c-4.1,-0.2 -8.2,-0.3 -12.3,-0.3c-25.5,0 -51.2,4.4 -74,13.4c-61.6,24.4 -95.1,91.3 -95.1,158.2c0,2.2 0,4.4 0.1,6.6c-0.5,9.1 0.5,17.9 -2.1,26.9c-0.8,2.8 -1.7,5.7 -3.1,8.4c-1,2 -6.2,10.3 -8.7,10c6.8,0.7 14.4,-3.1 18.4,-8.8c0.8,4.4 1.3,8.9 2.2,13.2c1.1,5.4 2.4,10.7 3.9,16c3,10.6 6.9,20.9 11.7,30.9c2.7,5.6 5.6,11 8.8,16.3c12.5,20.8 31.3,38.7 53.2,49.3c14,6.8 29.7,10.6 45.1,12.1c16.9,1.6 33.9,2.3 50.8,2.3l2.2,0c16.9,0 33.9,-0.7 50.8,-2.3c85.1,-7.9 116.6,-82.1 126,-140.3c2.9,7.1 9.3,13.2 15.9,16.2z" id="svg_8"/>
  <path opacity="0.1" d="m362.9,647.3c15.1,-18.5 29.2,-66.2 16.4,-88.4c-10.7,-18.6 -45.7,-22.2 -64.7,-27.3c-29.6,-8 -60.8,-6.7 -90.1,2.2c-37.3,11.4 -64.5,30.7 -51.4,73.5c11,35.9 36.4,63.4 72.5,75c44.6,14.3 87.1,1.9 117.3,-35z" id="svg_9"/>
  <path opacity="0.1" d="m335.4,771.9c-20.1,7 -42.1,11 -63.4,9.6c-40.7,-2.7 -72.5,-18.3 -102.9,-44.8c-12.4,-10.8 -25.1,-21.7 -31.7,-37.2c-6.3,-14.9 -8.7,-40.9 0.6,-55.4c4.3,26.6 15.2,55.9 38.9,71.2c19.2,12.4 49.7,21.7 69.2,7.3c5.4,-4 3.4,-3.1 9.8,-3.7c24.5,-2.3 49.5,-2.2 73.5,-8.6c25.8,-6.9 51.5,-29.6 71.5,-46.6c8.6,-7.3 23.6,-23.3 36.4,-16.6c17,8.8 3.6,35.5 -3.4,46.8c-13.5,21.7 -30.1,36.6 -50.3,52.1c-14.4,10.9 -31.2,20 -48.2,25.9z" id="svg_10"/>
  <path fill="#2F3238" d="m376.7,841.4c-2,5.1 -4,10.3 -6.1,15.4c-4.9,1.3 -10,2.1 -14.8,3.6c-4,-3.8 -8.5,-7.3 -12.5,-11.4c2.3,-5.4 4.6,-10.7 6.9,-16.1c9,2.2 18.1,4.6 26.5,8.5z" id="svg_11"/>
  <path fill="#79A5B5" d="m184.2,331.2c-14.6,-2.1 -29.7,-0.2 -42,6.3c26.8,4.5 43.9,20.6 53.9,41.8c3.1,-1.6 6.2,-3.3 9.1,-5.2c-13.9,-10.3 -24.8,-26.9 -21,-42.9z" id="svg_12"/>
  <path fill="#4B7882" d="m226.9,353.6c-10.2,-12.3 -26.1,-20 -42.7,-22.4c-3.9,16 7.1,32.6 21,42.9c8.5,-5.5 15.9,-12.5 21.7,-20.5zm145,-22.6c-17.3,2.1 -34.1,9.9 -44.7,22.7c3.9,5.4 8.6,10.4 13.8,14.7c16.1,-6.4 30.6,-19.8 30.9,-37.4z" id="svg_13"/>
  <path fill="#79A5B5" d="m371.9,331c-0.2,17.7 -14.7,31 -30.9,37.4c5.2,4.3 10.9,8 16.9,11c10,-21.2 27.1,-37.3 53.9,-41.8c-11.7,-6.3 -26,-8.3 -39.9,-6.6z" id="svg_14"/>
  <path fill="#FFF" d="m235.4,325.2c-28.6,0 -32.8,-6.7 -51.1,-6.7c-16.2,0 -32.1,5.9 -42.3,19l0.2,0c26.2,-13.8 65.5,-7 84.6,16.1c6.2,-8.5 10.5,-18.1 12.5,-28.5c-1.3,0 -2.6,0.1 -3.9,0.1zm83.2,0c28.6,0 32.8,-6.7 51.1,-6.7c16.2,0 32.1,5.9 42.3,19l-0.2,0c-26.2,-13.8 -65.5,-7 -84.6,16.1c-6.2,-8.5 -10.5,-18.1 -12.5,-28.5c1.3,0 2.6,0.1 3.9,0.1z" id="svg_15"/>
  <path fill="#DDC394" d="m346.3,438c0,-2.3 0,-4.5 0.1,-6.8c0.7,-18.3 4.2,-36.5 11.4,-51.9c-21.7,-10.7 -38.8,-30.5 -43.2,-54.2c-12.6,-0.3 -25.2,-2 -37.7,-4c-12.5,2 -25.1,3.7 -37.7,4c-4.4,23.7 -21.5,43.5 -43.2,54.2c7,15 10.5,32.4 11.4,50.2c0.1,2.8 0.2,5.7 0.2,8.5c0,69.5 -25.3,75.3 -25.3,105.3c0,42 48.5,78 90.2,78c1.5,0 2.9,-0.1 4.4,-0.2c1.5,0.1 2.9,0.2 4.4,0.2c41.7,0 90.2,-36 90.2,-78c0.1,-30 -25.2,-35.8 -25.2,-105.3z" id="svg_16"/>
  <path opacity="0.1" d="m345,432c0.5,-0.2 1,-0.5 1.4,-0.8c0.7,-18.3 4.2,-36.5 11.4,-51.9c-21.7,-10.7 -38.8,-30.5 -43.2,-54.2c-12.6,-0.3 -25.2,-2 -37.7,-4c-12.5,2 -25.1,3.7 -37.7,4c-4.4,23.7 -21.5,43.5 -43.2,54.2c7,15 10.5,32.4 11.4,50.2c34.8,32.7 97.1,24.1 137.6,2.5z" id="svg_17"/>
  <path fill="#FEFFFB" d="m276.3,371.5c-4.1,-15.8 -13.1,-15 -29.8,-15c-6.1,0 -12.2,1.9 -18,5c-1.6,0.9 -3,2.5 -4.5,3.5c-8.2,5.1 -11.3,12.5 -11.3,20.6c0,10.3 11.2,51.6 40.3,51.6c9.8,0 19.7,-6.1 24,-18.7c4.3,12.7 14.2,18.7 24,18.7c29,0 40.3,-41.3 40.3,-51.6c0,-8.1 -3.1,-15.5 -11.3,-20.6c-1.5,-1 -2.9,-2.6 -4.5,-3.5c-5.8,-3.1 -11.9,-5 -18,-5c-16.6,-0.1 -27.1,-0.8 -31.2,15z" id="svg_18"/>
  <path opacity="0.3" d="m219.3,404.2c7.5,-6.1 11.6,-13.4 9.7,-23.4c4.7,4.7 6.5,12.5 4.5,18.9c7.1,-6.2 13.3,-15.4 15,-24.8c2.2,5.1 3.9,10.8 3,16.3c3.5,-4.2 12,-7.8 13,-13.3c1,8.8 9.5,14.1 16.1,18.5c1.7,-4.5 4.8,-9.1 5.8,-13.8c5.8,2.9 8.7,8.6 8.5,14.9c5.1,-1.8 7.9,-11.4 11,-15.9c0.1,5.1 5.6,8.6 8.5,12.1c-0.9,-1.1 4.8,-7 5.6,-7.3c0.9,-0.3 4.2,11.1 4.7,12.1c1.6,3.4 5.2,8.2 9.1,9c0.8,-1.6 1.3,-4 2.8,-5.3c2.2,-1.8 0.5,-1.2 3,-0.5c2.5,0.8 6.5,3.5 8.9,4.9c6.7,-15.4 5.3,-37.8 -5.4,-51c-17.7,-21.8 -53.6,-10.7 -77.2,-9c-20.1,1.4 -45.9,-1.9 -62.8,11.5c-10,7.9 -7.3,16.3 -4.7,26.9c0.9,3.6 0.7,7.4 1.9,10.8c1.2,3.4 3.2,6.8 4.5,10.2c1,-3.4 4.4,-8.7 8.1,-9.6c3.3,-0.6 9.5,5.3 6.4,7.8z" id="svg_19"/>
  <path fill="#FEFFFB" d="m297.3,294.8l-2.9,-22.5l-3.1,-24.1l-2,-15.6l-3.8,-29l-2,-15.5l-6.3,-48.5l-7.3,55.8l-2.1,16.2l-4.2,31.8l-1.9,14.9l-3.7,28.5l-2.2,17.2l-2.9,22s1.1,12.6 24.3,14.1c23.2,-1.5 24.3,-14.1 24.3,-14.1l-4.2,-31.2z" id="svg_20"/>
  <path fill="#FEFFFB" d="m277,377.7c-3.1,-2.1 -5.8,-4.8 -8,-7.9c-3.1,4.2 -7.5,7.6 -12.2,9.9c-1.8,-8 -6.2,-16.3 -13.8,-19.3c1.7,3.3 2.6,6.8 2.6,10.2c0,3.1 -0.8,6.2 -2.4,8.8c-2.2,-3.6 -7.6,-7.8 -15.5,-7.8c-2.6,0 -5.3,0.4 -7.5,1.5c5.1,2.7 8.5,8.2 8.5,12.6c0,4.3 -2.8,8.2 -6.6,11.2c-0.6,-3 -2.8,-5.3 -5.8,-5.3c-10.7,0 -16.2,11 -22.2,19.5c-1.3,1.8 -2.4,3.7 -3.5,5.6c-2.5,-5.4 -3.6,-11.2 -3.6,-17.1c0,-4 0.5,-8.1 1.6,-12c-8.5,4.4 -15.8,12.6 -18.3,23.2c-2.2,-5.7 -3.6,-12.2 -3.6,-17.7c0,-5.3 1.1,-10.4 3.5,-14.8c-6.2,0.3 -12.4,1.7 -17.8,4.4c3.1,-6.3 7.7,-11.9 13.1,-16.5c9.3,-7.8 20.3,-13.2 31.8,-16.9c6.3,-2.1 11.2,-8.9 11.2,-16c0,-2.6 -0.6,-5.2 -2.1,-7.6c5,2 10.1,4.5 12.1,9.5c0.8,-3.1 1.2,-6.5 1.2,-9.8c0,-6.9 -1.9,-13.8 -6.5,-18.6c6.5,0.3 13,2.5 17.7,6.5c3.4,-10.7 10.3,-20.4 19.7,-26c-3,5.3 -4.6,11.3 -4.6,17.2c0,4.5 -0.3,9.2 -1.6,13.5c3.8,-2.6 6.9,-6 9.1,-9.9c1.9,4.2 5.5,7.5 10,8.7c3.4,-4.7 8.2,-8.7 13.5,-10.9c5.2,2.2 10.1,6.1 13.5,10.9c4.5,-1.2 8.1,-4.5 10,-8.7c2.2,3.9 5.3,7.4 9.1,9.9c-1.3,-4.2 -1.6,-8.9 -1.6,-13.5c0,-5.9 -1.6,-12 -4.6,-17.2c9.5,5.6 16.3,15.2 19.7,26c4.8,-4.1 11.3,-6.2 17.7,-6.5c-4.7,4.8 -6.5,11.7 -6.5,18.6c0,3.4 0.4,6.7 1.2,9.8c2,-5 7.1,-7.5 12.1,-9.5c-1.5,2.4 -2.1,5 -2.1,7.6c0,7.1 4.9,13.9 11.2,16c11.5,3.8 22.4,9.1 31.8,16.9c5.5,4.6 10,10.2 13.1,16.5c-5.5,-2.7 -11.7,-4.1 -17.8,-4.4c2.5,4.4 3.5,9.5 3.5,14.8c0,5.5 -1.4,11.9 -3.6,17.7c-2.5,-10.7 -9.8,-18.8 -18.3,-23.2c1,3.9 1.6,8 1.6,12c0,5.9 -1.1,11.7 -3.6,17.1c-1,-1.9 -2.2,-3.8 -3.5,-5.6c-6.1,-8.5 -11.5,-19.5 -22.2,-19.5c-3,0 -5.1,2.3 -5.8,5.3c-3.7,-3 -6.6,-6.9 -6.6,-11.2c0,-4.4 3.4,-9.9 8.5,-12.6c-2.2,-1 -4.9,-1.5 -7.5,-1.5c-8,0 -13.3,4.2 -15.5,7.8c-1.6,-2.7 -2.4,-5.7 -2.4,-8.8c0,-3.4 0.9,-7 2.6,-10.2c-7.6,3 -12,11.3 -13.8,19.3c-4.7,-2.3 -9.1,-5.7 -12.2,-9.9c-2.2,3.1 -4.8,5.8 -8,7.9z" id="svg_21"/>
  <path fill="#FC8BA4" d="m269.8,195.3l-2.1,16.2c6,0.7 12.6,-3.4 17.4,-7.5c0.1,-0.1 0.2,-0.3 0.4,-0.4l-2,-15.5c-3.8,4 -8.4,6.7 -13.7,7.2zm-6.3,48l-1.9,14.9c10.9,4 22.5,-1.1 29.7,-10l-2,-15.6c-6.1,8.2 -15.8,13.5 -25.8,10.7zm-5.7,43.4l-2.2,17.2c13.6,5.6 31.8,2.8 41.7,-9.1l-2.9,-22.5c-8.1,12.1 -22.3,19.8 -36.6,14.4z" id="svg_22"/>
  <path fill="#DDC394" d="m380.9,530.3c-1.4,-2.7 -3.1,-5.3 -4.9,-7.7c16.1,54.6 -15.5,115.8 -72,130.4c-25,6.8 -50.4,9.8 -75.7,9.6c13.5,4.2 29.6,6.6 48.7,6.6c87.2,0 111.2,-48.3 111.2,-104.8c0,-13.6 -1.9,-24 -7.3,-34.1z" id="svg_23"/>
  <path fill="#EFD7A0" d="m304,653c56.5,-14.6 88.1,-75.7 72,-130.4c-16.6,-22.2 -48.3,-33.2 -71.8,-38c-4.7,-1 -18.4,-2.2 -27.2,-2.2s-22.5,1.3 -27.2,2.2c-26.1,5.3 -62.4,18.3 -76.7,45.7c-5.3,10.1 -7.3,20.5 -7.3,34c0,44 14.6,83.2 62.4,98.2c25.4,0.2 50.8,-2.7 75.8,-9.5z" id="svg_24"/>
  <path fill="#2F3238" d="m212.5,519c-9.3,6.9 -17.7,18.1 -17.7,28.9c0,9.1 14.4,30 14.4,9.1c0,-5.8 -0.4,-11.7 -0.4,-17.4c0,-7.3 0.7,-14.3 3.7,-20.6zm129,0c9.3,6.9 17.7,18.1 17.7,28.9c0,9.1 -14.4,30 -14.4,9.1c0,-5.8 0.4,-11.7 0.4,-17.4c0,-7.3 -0.6,-14.3 -3.7,-20.6zm-93.1,-132.2c-4.2,1.2 -6.7,4.5 -7.6,8.5c-1.8,8.1 4.6,17.6 12.6,17.1c4.9,-0.3 9.7,-4.5 10.6,-9.5c1.6,-9.2 -4.4,-17.4 -14,-16.4c-0.5,0 -1.1,0.1 -1.6,0.3zm57.3,0c4.2,1.2 6.7,4.5 7.6,8.5c1.8,8.1 -4.6,17.6 -12.6,17.1c-4.9,-0.3 -9.7,-4.5 -10.6,-9.5c-1.6,-9.2 4.4,-17.4 14,-16.4c0.5,0 1,0.1 1.6,0.3z" id="svg_25"/>
  <path fill="#FFF" d="m247.7,393.4c-0.9,0.9 -4.8,5.7 -3.9,7.1c-1.6,-2.3 -0.6,-6.1 1,-8.1c0.5,-0.7 3.2,-3.2 4.3,-2.3c1.3,1 -0.8,2.7 -1.4,3.3zm58.7,0c0.9,0.9 4.8,5.7 3.9,7.1c1.6,-2.3 0.6,-6.1 -1,-8.1c-0.5,-0.7 -3.2,-3.2 -4.3,-2.3c-1.3,1 0.8,2.7 1.4,3.3zm-54.2,-2.6c3.4,1.7 1.7,-4.8 -1,-1.5c-0.3,0.3 -0.2,0.9 1,1.5zm49.6,0c-3.4,1.7 -1.7,-4.8 1,-1.5c0.4,0.3 0.2,0.9 -1,1.5z" id="svg_26"/>
  <path fill="#2F3238" d="m277,629.6c-6.9,0.3 -13.7,-0.2 -20.6,0c-2.4,0 -11.3,-0.1 -8,3.9c2.5,3.1 12.6,2 15.9,2c4.2,0.1 8.5,0.2 12.7,0.1c4.2,0.1 8.5,0 12.7,-0.1c3.4,-0.1 13.4,1.1 15.9,-2c3.2,-4 -5.6,-3.8 -8,-3.9c-6.8,-0.1 -13.7,0.3 -20.6,0zm32.1,126.2c-2.5,-10 -5.3,-19.8 -9.1,-29.6c-10.9,1.9 -24.7,4.4 -36.9,4.5c-0.1,5.6 1.2,16.7 4.3,24.8c14,1.8 27.9,2 41.7,0.3z" id="svg_27"/>
  <g fill="#C6BC9D" id="svg_28">
   <path d="m453.7,638.3c0.3,7.4 -6.8,14.9 -13.2,17.8c4.7,-4.1 6.7,-14 4.5,-19.9c-7.1,5.1 -10.7,20.1 -5.6,27.5c-6.2,-8.8 -9.4,-18.4 -6,-28.9c-4.8,3.6 -9,6.2 -15.1,7.6c3.5,-3.4 9.3,-7.6 8.6,-13.2c-9.2,-1.8 -14.1,13.1 -13.6,19.8c-0.6,-1.9 -1,-3.9 -1.5,-5.8c-4.7,10.8 -10.8,21.1 -17.4,30.9c-3.1,4.6 -6.5,8.8 -10.1,12.8c-10.9,11.7 -24.1,20.9 -38.4,28.7c-11.5,6.3 -22.8,6.2 -35.7,6.6c-9.2,0.3 -22.1,-6.8 -30.1,3.3c4.2,-1.7 8.4,-1.4 11.2,1.9c-8,1 -9.5,10.5 -8.9,15c3.3,-5.9 8.4,-9.7 15.6,-8.3c-5.7,3.2 -9.9,8.1 -9.4,16.4c2.4,-5.4 7.8,-8.9 10.7,-7.2c3.5,8.1 -10.1,15.5 -16.3,18c5.9,0.3 12.6,-2.9 17.6,-7c-3.4,3.7 -7.1,8.1 -7.9,11.8c5.7,-2.8 11.4,-6.4 17.9,-7.2c6.9,-0.9 13.9,-2 20.8,-3.4c8.6,-1.8 16.9,-4 25.3,-6.5c6.6,-2 12.9,-5.3 19.1,-8.4c9.5,-4.6 16.6,-10.8 24.8,-17.5c9,-7.3 17.2,-15.4 24.8,-24c6.8,-7.7 12.3,-15.8 17.3,-24.8c5.1,-9 8.8,-20.7 11.2,-31.8c0.1,-1.2 -0.2,-2.7 -0.2,-4.2zm-170.4,123.2c-0.2,0 -0.2,0 0,0z" id="svg_29"/>
  </g>
  <path fill="black" opacity="0.5" d="m273.2,508.6s0.2,6 0.1,15.1c0,2.3 0,4.7 -0.1,7.3c-0.1,2.6 0,5.3 0,8.1s0,5.7 -0.1,8.7c0,3 -0.1,6 -0.1,8.9l0,21.8c0,1.4 -0.1,2.7 0,4c0,2.6 0.1,5 0.1,7.3c0,9 -0.2,15.1 -0.2,15.1s-0.8,-6 -1.5,-15c-0.2,-2.3 -0.4,-4.7 -0.6,-7.3c-0.2,-2.6 -0.2,-5.3 -0.3,-8.1c-0.1,-2.8 -0.2,-5.7 -0.2,-8.7c0,-3 -0.1,-6 -0.1,-9c0.1,-3 0.2,-6 0.2,-9c0.1,-3 0.2,-5.9 0.3,-8.7c0.1,-2.8 0.2,-5.6 0.4,-8.1c0.2,-2.6 0.4,-5 0.6,-7.3c0.7,-9.1 1.5,-15.1 1.5,-15.1z" id="svg_32"/>
  <path fill="#FEFFFB" d="m255.5,497.5c-9.4,-1.8 -24.7,9.9 -10.6,11.1c4.8,0.4 16.8,-5.7 10.1,-11.1l0.5,0zm12,-2.5c-8.6,1.9 0,8.4 2.5,2c-0.9,-0.9 -1.9,-1 -3,-1.5l0.5,-0.5zm5.8,237.7c4.2,2.8 -6.7,5.5 -5.6,6.5c-3.1,-2.8 1.9,-9 5.6,-6.5z" id="svg_34"/>
  <g stroke="null" id="svgg">
   <path stroke="null" fill-rule="evenodd" fill="#7c7c7c" d="m235.96705,598.438078c0,1.116962 1.9384,2.174712 15.646081,8.537896c55.863175,25.931283 52.866487,24.598465 53.812809,23.935286c0.863425,-0.604505 0.853736,-0.626575 -0.541525,-1.221391c-2.503072,-1.066901 -16.346941,-7.457538 -41.161263,-19.001812c-29.305316,-13.633397 -27.756103,-12.949224 -27.756103,-12.249978m127.376199,12.38832c34.292619,48.059513 21.990964,115.433587 -27.099922,148.421917c-39.960327,26.853383 -94.673703,22.855466 -129.380809,-9.454074c-5.300052,-4.934012 -5.38295,-4.646562 -0.142648,0.494693c40.963708,40.191255 107.098628,39.733704 147.854554,-1.021684c37.146121,-37.146659 41.264615,-96.432851 9.589186,-138.043052c-3.076356,-4.04098 -3.601732,-4.295594 -0.820362,-0.3978m-34.951492,26.501876c-7.929085,5.493838 -43.192788,30.428199 -46.931785,33.18427l-1.397952,1.030297l1.480849,1.006612c2.064899,1.403335 0.969469,2.001919 16.351248,-8.937311c13.560727,-9.644631 33.014168,-23.316246 38.58283,-27.115532c2.994535,-2.043368 3.792288,-3.755684 2.268913,-4.869416c-1.084126,-0.792908 -0.587818,-1.066362 -10.354104,5.701082m-74.0527,38.499394c0.562518,1.004997 52.260905,35.576452 53.200768,35.576452c1.244538,0 0.873653,-0.622807 -0.996922,-1.674097c-0.966778,-0.54314 -12.90616,-8.444233 -26.53202,-17.557567c-25.419365,-17.00097 -26.382374,-17.614088 -25.671825,-16.344788m69.416365,31.240486c-0.404798,0.106044 -0.735849,0.357966 -0.735849,0.560365c0,0.201861 0.567901,0.169563 1.261763,-0.072132c1.891568,-0.659411 1.505073,-1.018992 -0.525914,-0.488234m-11.249288,4.756913c1.437786,0.460242 2.543444,0.460242 1.471698,0c-0.462395,-0.199169 -1.219238,-0.356351 -1.682172,-0.349353c-0.676098,0.009689 -0.63465,0.078591 0.210473,0.349353m-10.723912,4.334351c-6.87941,2.791059 -6.744836,2.728079 -6.464384,3.008531c0.193786,0.193786 11.871557,-4.376338 13.286196,-5.199929c1.89749,-1.104581 -0.963548,-0.185712 -6.821812,2.191399m21.868233,-0.970008c0.462395,0.198631 1.125036,0.361196 1.471698,0.361196c0.3978,0 0.319747,-0.133497 -0.209935,-0.361196c-0.462934,-0.199169 -1.125036,-0.361734 -1.472237,-0.361734c-0.397262,0 -0.319747,0.133497 0.210473,0.361734m7.149095,7.547972c-6.24476,2.71193 -22.330628,9.522438 -35.746015,15.133625c-63.208209,26.439972 -56.762666,23.490116 -55.878785,25.57547c0.783219,1.84689 -1.125575,2.490691 24.510723,-8.263904c12.626247,-5.297361 31.094609,-13.039657 41.040685,-17.20606c38.074141,-15.948065 39.741241,-16.715673 39.741241,-18.297184c0,-2.80344 -0.349892,-2.725387 -13.667847,3.058054m-39.555529,-2.304979c-1.045369,0.790755 -0.300369,0.799906 1.076052,0.013457c0.673945,-0.385419 0.816055,-0.60612 0.395647,-0.615809c-0.360658,-0.008074 -1.02276,0.262688 -1.471698,0.602352m-7.965689,5.270446c0.462395,0.198631 1.125036,0.361196 1.471698,0.361196c0.3978,0 0.319747,-0.133497 -0.209935,-0.361196c-0.462934,-0.199169 -1.125036,-0.361734 -1.472237,-0.361734c-0.397262,0 -0.319747,0.134035 0.210473,0.361734m-11.192229,2.744228c-1.837739,1.37965 -4.444163,4.67886 -4.026985,5.096577c0.106582,0.106582 0.622807,-0.500076 1.147107,-1.348429c0.523761,-0.847815 2.08051,-2.371728 3.458545,-3.386414c1.378035,-1.014686 2.24792,-1.838816 1.933556,-1.831818c-0.314364,0.006998 -1.445322,0.668562 -2.512223,1.470084m16.659153,-1.062056c0.462934,0.198631 1.125036,0.361196 1.472237,0.361196c0.397262,0 0.319747,-0.133497 -0.210473,-0.361196c-0.462934,-0.199169 -1.125036,-0.361734 -1.471698,-0.361734c-0.3978,0 -0.320286,0.134035 0.209935,0.361734m-9.18708,10.354642c-0.658873,0.35689 -2.362038,0.902182 -3.78529,1.211164c-1.759686,0.382728 -2.174712,0.573822 -1.297291,0.596431c1.615961,0.041987 5.181627,-0.997999 6.286747,-1.832894c1.086279,-0.8209 0.327822,-0.804751 -1.204166,0.0253m-38.965019,5.625721c-0.930174,1.850658 -1.597121,3.364344 -1.481926,3.364344c0.115195,0 0.898414,-1.372114 1.740308,-3.048903c0.841893,-1.676789 1.743537,-3.187783 2.002996,-3.357884c0.335358,-0.219624 0.321362,-0.310596 -0.048985,-0.315441c-0.286373,-0.00323 -1.282219,1.507764 -2.212392,3.357884m23.129996,-2.522988c-0.560903,0.362273 -0.560903,0.407489 0,0.407489c0.346662,0 0.914563,-0.183559 1.261763,-0.407489c0.560365,-0.362273 0.560365,-0.408028 0,-0.408028c-0.3472,0 -0.915101,0.183559 -1.261763,0.408028m-4.626645,1.912024c-0.60935,0.336973 -0.785911,0.584588 -0.41987,0.589971c0.750921,0.009689 1.952396,-0.690094 1.669253,-0.972699c-0.109274,-0.109812 -0.671792,0.062442 -1.249383,0.382728" id="path0"/>
   <path stroke="null" fill-rule="evenodd" fill="#a4a4a4" d="m235.126233,598.229758c0,1.968545 1.983617,3.016067 32.592145,17.215211c36.793537,17.068257 35.905351,16.667765 36.245553,16.327563c0.39134,-0.39134 1.528219,0.166871 -19.2139,-9.437387c-50.928625,-23.581626 -48.782981,-22.530874 -48.782981,-23.886839c0,-0.297677 -0.188942,-0.657796 -0.420408,-0.800983c-0.231467,-0.142648 -0.420408,0.119501 -0.420408,0.582435m103.032886,32.585686c0,0.327822 0.283681,0.704628 0.630882,0.837587c1.377497,0.528606 0.749307,2.727002 -1.156796,4.046363c-0.982927,0.680943 -4.720309,3.258838 -8.305353,5.729612c-5.225768,3.601732 -37.500857,26.417364 -44.288756,31.30885c-0.882265,0.635188 -1.424328,1.266608 -1.204704,1.402258c0.219086,0.13565 7.091498,-4.508759 15.27089,-10.320729c18.40269,-13.075185 33.188038,-23.476658 37.464253,-26.355998c3.542519,-2.385185 4.269217,-3.300825 3.872494,-4.880182c-0.306828,-1.223544 -2.282909,-2.753379 -2.282909,-1.767761m-84.949405,44.424945c0,0.502767 0.519993,1.368884 1.156258,1.925481c2.371728,2.072974 52.008983,34.984866 52.487527,34.801308c0.273992,-0.104968 -11.257901,-8.053969 -25.626608,-17.664149c-28.981263,-19.382925 -26.773177,-17.83425 -26.926591,-18.882311c-0.163642,-1.112117 -1.090586,-1.265531 -1.090586,-0.180329m61.188527,37.425496c0.462934,0.198631 1.125036,0.361196 1.472237,0.361196c0.397262,0 0.319747,-0.133497 -0.210473,-0.361196c-0.462395,-0.198631 -1.125036,-0.361196 -1.471698,-0.361196c-0.3978,0 -0.319747,0.133497 0.209935,0.361196m5.467462,1.682172c0.462395,0.198631 1.124498,0.361196 1.471698,0.361196c0.3978,0 0.319747,-0.133497 -0.210473,-0.361196c-0.462395,-0.198631 -1.124498,-0.361196 -1.471698,-0.361196c-0.3978,0 -0.319747,0.133497 0.210473,0.361196m5.466924,1.680019c1.09543,0.4737 1.471698,0.497385 1.471698,0.093663c0,-0.180867 -0.520531,-0.357428 -1.156258,-0.392955c-0.997999,-0.055444 -1.041062,-0.013996 -0.315441,0.299292m17.735742,1.12073c-0.152876,0.152876 0.099585,0.542063 0.560365,0.86504c1.158411,0.811749 1.070669,2.470774 -0.173869,3.286291c-1.244538,0.815517 -14.866092,6.680779 -38.728708,16.676378c-9.946076,4.166403 -28.414438,11.908699 -41.040685,17.20606c-12.626247,5.296822 -23.186517,9.630635 -23.466969,9.630635c-0.47047,0 -1.590123,-2.381955 -1.413563,-3.005839c0.042525,-0.149646 -0.310596,-0.17064 -0.784834,-0.046832c-0.474238,0.124346 -0.67233,0.342894 -0.439787,0.486619c0.232543,0.143725 0.551214,0.772453 0.707858,1.396337c0.754151,3.004224 0.488772,3.073664 20.177987,-5.260218c9.020747,-3.818126 26.431359,-11.139476 38.68995,-16.270504c49.108111,-20.553717 48.152099,-20.10747 48.152099,-22.473276c0,-1.667638 -1.450167,-3.28037 -2.239845,-2.490691m-51.403939,3.740612c-0.803136,0.643801 -0.803136,0.648107 0.024762,0.267533c0.462395,-0.213165 1.125036,-0.49254 1.471698,-0.621192c0.545293,-0.201861 0.541525,-0.238465 -0.024762,-0.266994c-0.360658,-0.018302 -1.02276,0.261073 -1.471698,0.620654m-6.703925,5.65425c0.462395,0.199169 1.125036,0.361734 1.471698,0.361734c0.3978,0 0.319747,-0.134035 -0.209935,-0.361734c-0.462934,-0.198631 -1.125036,-0.361196 -1.472237,-0.361196c-0.397262,0 -0.319747,0.133497 0.210473,0.361196m5.466924,1.682172c0.462934,0.199169 1.125036,0.361734 1.472237,0.361734c0.397262,0 0.319747,-0.134035 -0.210473,-0.361734c-0.462934,-0.198631 -1.125036,-0.361196 -1.471698,-0.361196c-0.3978,0 -0.320286,0.133497 0.209935,0.361196m-22.813479,8.200924c0.004845,0.924791 0.090972,1.254227 0.191633,0.731005c0.100123,-0.523223 0.096355,-1.280065 -0.008613,-1.682172c-0.105506,-0.402106 -0.187865,0.025838 -0.18302,0.951167m-10.799812,1.711778c-0.154491,0.616348 -0.200246,1.202013 -0.101199,1.301059c0.099046,0.099046 0.306828,-0.324054 0.461857,-0.940401c0.154491,-0.616348 0.199707,-1.201474 0.100661,-1.300521c-0.099046,-0.099585 -0.306828,0.323515 -0.461319,0.939863m-15.915229,5.437317c-0.858042,1.734925 -1.469545,3.15387 -1.359195,3.15387c0.110889,0 0.859657,-1.306442 1.66387,-2.903563c0.804751,-1.597121 1.705857,-3.001533 2.002996,-3.121034c0.381113,-0.152876 0.35043,-0.226622 -0.102814,-0.250307c-0.397262,-0.020455 -1.242923,1.177251 -2.204856,3.121034m14.653465,-1.231619c-0.154491,0.616348 -0.200246,1.201474 -0.100661,1.300521c0.099046,0.099585 0.30629,-0.323515 0.461319,-0.939863c0.154491,-0.616348 0.200246,-1.202013 0.100661,-1.301059c-0.099046,-0.099046 -0.30629,0.324054 -0.461319,0.940401m-54.280049,2.282909c1.139032,1.156258 2.165561,2.10258 2.281294,2.10258c0.115733,0 -0.721315,-0.946323 -1.860886,-2.10258c-1.139032,-1.156258 -2.165561,-2.10258 -2.281294,-2.10258c-0.115733,0 0.721854,0.946323 1.860886,2.10258" id="path1"/>
   <path stroke="null" fill-rule="evenodd" fill="#c4c4c4" d="m234.058256,598.503212c0.745,2.476157 1.084126,2.849734 3.713697,4.093195c26.361919,12.464758 65.227354,30.168741 65.54118,29.854915c0.250845,-0.250845 -0.582435,-0.83651 -2.248458,-1.581511c-1.45555,-0.651337 -16.461598,-7.592112 -33.346296,-15.424842c-30.485259,-14.142085 -32.592145,-15.252049 -32.592145,-17.175377c0,-0.441402 -0.370347,-1.00069 -0.822515,-1.242923c-0.796138,-0.42633 -0.804213,-0.379498 -0.245463,1.476543m123.828835,5.591808c0.226622,0.424176 0.742309,1.038909 1.146568,1.367269c0.454321,0.368732 0.352583,0.074823 -0.266456,-0.770838c-1.104581,-1.508841 -1.519068,-1.789292 -0.880112,-0.596431m-19.727972,25.71435c0,0.226084 0.454859,0.708934 1.011456,1.07336c3.079585,2.01753 2.105272,3.33689 -7.205616,9.759288c-4.341887,2.995073 -15.842021,11.089415 -25.55663,17.988203c-9.714609,6.89825 -18.647076,13.239365 -19.850165,14.090947c-1.610579,1.13957 -2.063823,1.671944 -1.718238,2.01753c0.346124,0.345585 0.589971,0.323515 0.925867,-0.085051c0.691709,-0.840278 44.507304,-31.810541 53.316501,-37.684954c2.730232,-1.821052 3.212006,-4.340811 1.211702,-6.341115c-1.236464,-1.236464 -2.134878,-1.580972 -2.134878,-0.818208m44.254844,36.59706c0,0.809057 0.086127,1.140647 0.192171,0.735849c0.105506,-0.404798 0.105506,-1.067439 0,-1.472237c-0.106044,-0.404798 -0.192171,-0.073208 -0.192171,0.736388m-130.045604,8.572347c0,0.94094 0.342356,1.847967 0.946323,2.508993c1.54383,1.690246 51.845879,35.138819 52.363181,34.819071c0.266994,-0.164718 -10.581264,-7.678778 -24.997341,-17.313719c-27.456273,-18.350475 -27.470807,-18.360703 -27.470807,-19.920682c0,-0.575976 -0.18948,-1.163794 -0.420947,-1.30698c-0.249769,-0.153952 -0.420408,0.338588 -0.420408,1.213317m130.045604,2.3615c0,0.809596 0.086127,1.140647 0.192171,0.735849c0.105506,-0.404798 0.105506,-1.066901 0,-1.471698c-0.106044,-0.404798 -0.192171,-0.073746 -0.192171,0.735849m-66.33355,36.166962c0.462934,0.198631 1.125036,0.361196 1.472237,0.361196c0.397262,0 0.319747,-0.133497 -0.210473,-0.361196c-0.462395,-0.199169 -1.125036,-0.361734 -1.471698,-0.361734c-0.3978,0 -0.319747,0.133497 0.209935,0.361734m-9.041202,1.471698c-0.578667,0.330513 -0.862349,0.600737 -0.630882,0.600737c0.230929,0 0.89357,-0.270224 1.471698,-0.600737c0.578129,-0.330513 0.862349,-0.601275 0.630882,-0.601275c-0.231467,0 -0.89357,0.270762 -1.471698,0.601275m14.508664,0.210473c0.462395,0.198631 1.124498,0.361196 1.471698,0.361196c0.3978,0 0.319747,-0.133497 -0.210473,-0.361196c-0.462395,-0.199169 -1.124498,-0.361734 -1.471698,-0.361734c-0.3978,0 -0.319747,0.133497 0.210473,0.361734m-17.452599,1.05129c-0.578129,0.330513 -0.862349,0.600737 -0.630882,0.600737c0.231467,0 0.89357,-0.270224 1.471698,-0.600737c0.578129,-0.330513 0.862349,-0.601275 0.630882,-0.601275c-0.231467,0 -0.89357,0.270762 -1.471698,0.601275m39.110359,-0.165795c0,0.25569 0.473161,0.837049 1.05129,1.291908c1.440477,1.133111 1.448552,3.33689 0.015611,4.463542c-1.136879,0.894108 -13.181229,6.078965 -47.11642,20.282416c-12.258591,5.131028 -29.669203,12.452377 -38.68995,16.270504c-19.734432,8.353261 -19.499735,8.292972 -20.182831,5.182166c-0.143725,-0.654567 -0.608273,-1.280604 -1.031911,-1.391492c-0.713779,-0.186788 -0.70086,-0.043064 0.178176,1.955087c1.594968,3.62434 0.659411,3.838043 21.456976,-4.904405c10.177543,-4.278368 27.209195,-11.415621 37.849134,-15.860323c24.325549,-10.163009 44.3948,-18.717592 47.011991,-20.039645c3.108115,-1.569668 3.650716,-3.798209 1.516915,-6.228611c-1.320438,-1.503996 -2.058978,-1.870575 -2.058978,-1.021146m-47.049671,3.279293c-0.638956,0.404798 -0.291756,1.305904 0.499538,1.295676c0.33159,-0.004306 0.305752,-0.129729 -0.075361,-0.371424c-0.465087,-0.294986 -0.424715,-0.453244 0.209935,-0.821976c0.432789,-0.251384 0.597507,-0.459704 0.366041,-0.463472c-0.231467,-0.00323 -0.681481,0.159335 -1.000152,0.361196m-23.9622,10.125328c-2.027219,1.603042 -4.265449,4.703621 -4.265449,5.90994c0,0.314364 0.490925,-0.413949 1.091124,-1.618115c1.085741,-2.179018 3.698086,-4.718155 5.660172,-5.501913c0.666947,-0.265918 0.783219,-0.41987 0.330513,-0.437096c-0.383804,-0.015072 -1.650951,0.726698 -2.816359,1.647183m13.18715,2.95201c0.586203,1.156258 1.160026,2.10258 1.275759,2.10258c0.115733,0 -0.269147,-0.946323 -0.855351,-2.10258c-0.585665,-1.156796 -1.160026,-2.10258 -1.275759,-2.10258c-0.115733,0 0.269147,0.945784 0.855351,2.10258m12.973447,-1.183711c0.124884,0.389726 0.000538,0.800445 -0.275607,0.912948c-0.276145,0.112504 -0.17064,0.219086 0.234158,0.237388c0.840817,0.038219 0.919946,-0.322977 0.269147,-1.228389c-0.388111,-0.538833 -0.420947,-0.527529 -0.227699,0.078053m-18.424222,7.154478c-0.453244,0.263226 -1.589047,0.718085 -2.522988,1.01038c-0.93448,0.292832 -1.319899,0.540986 -0.857504,0.551214c0.462395,0.010228 1.666023,-0.355275 2.674249,-0.812825c2.085893,-0.946861 2.765221,-1.047522 2.331894,-0.346662c-0.187327,0.303598 -0.115195,0.371424 0.19271,0.181405c1.315055,-0.812825 -0.447323,-1.378573 -1.81836,-0.583512m-8.084652,0.862887c0.440864,0.404798 1.112117,0.724007 1.491615,0.709473c0.435481,-0.017225 0.311134,-0.177637 -0.339664,-0.437634c-0.565748,-0.226084 -1.237002,-0.545293 -1.491615,-0.709473c-0.254614,-0.16418 -0.101738,0.032836 0.339664,0.437634m-9.393785,1.448552c0.600737,1.275221 0.947937,1.415177 2.358809,0.951167l1.225698,-0.403183l-1.327974,0.19271c-1.020607,0.147493 -1.485156,-0.022608 -2.009455,-0.735849l-0.68202,-0.927482l0.434942,0.922638m-63.492429,1.179943c0.784834,0.809596 1.521222,1.471698 1.636955,1.471698c0.115733,0 -0.431713,-0.662103 -1.216008,-1.471698c-0.784834,-0.809596 -1.52176,-1.471698 -1.636955,-1.471698c-0.115733,0 0.431713,0.662103 1.216008,1.471698m41.92618,2.54452c-1.544368,3.147949 -1.40172,3.520987 0.176561,0.462395c0.698169,-1.353274 1.198783,-2.530525 1.112656,-2.616652c-0.085589,-0.086127 -0.665871,0.883342 -1.289216,2.154256m30.512712,32.440346c0.404798,0.105506 1.066901,0.105506 1.471698,0c0.404798,-0.106044 0.073746,-0.19271 -0.735849,-0.19271c-0.809596,0 -1.140647,0.086665 -0.735849,0.19271m10.933847,0c0.404798,0.105506 1.066901,0.105506 1.471698,0c0.404798,-0.106044 0.073746,-0.19271 -0.735849,-0.19271c-0.809596,0 -1.140647,0.086665 -0.735849,0.19271" id="path2"/>
   <path stroke="null" fill-rule="evenodd" fill="#f9f9f9" d="m265.194852,567.227198c-60.64754,6.846035 -102.89885,65.205822 -90.831892,125.463098c13.484289,67.339085 88.319669,103.8807 149.918377,73.20327c58.722598,-29.244489 76.729641,-105.130083 37.263469,-157.038404c-1.643953,-2.162331 -3.436475,-4.622339 -3.982306,-5.466924c-0.546369,-0.844585 -3.301901,-3.815973 -6.123643,-6.603264c-22.533027,-22.25742 -54.341415,-33.15897 -86.244004,-29.557776m12.121326,28.797704c60.552262,30.65536 60.842941,30.80985 60.842941,32.345068c0,0.598046 0.319209,1.072822 0.830051,1.235387c3.227078,1.023837 3.28037,5.237072 0.093125,7.363875c-9.008905,6.012216 -53.211534,37.29792 -53.391324,37.788845c-0.060827,0.166333 12.846948,9.000292 28.684662,19.631079c18.112011,12.156853 28.80201,19.582632 28.812776,20.014345c0.009689,0.377883 0.774068,1.443707 1.699397,2.369036c2.561746,2.561207 2.156948,4.88718 -1.140109,6.552126c-2.61719,1.322052 -22.686441,9.876636 -47.011991,20.039645c-10.639938,4.444702 -27.65598,11.574957 -37.814145,15.844712c-13.139242,5.522906 -18.752043,7.691697 -19.449135,7.516751c-1.283295,-0.3219 -2.706009,-3.473617 -6.277596,-13.902544l-2.76253,-8.06635l0.769762,-1.617576c0.739617,-1.554058 1.008765,-1.706933 6.868105,-3.901024c6.130641,-2.295828 65.353853,-25.974885 66.345392,-26.526099c0.327283,-0.182482 -9.299045,-6.881025 -25.175517,-17.518271c-26.720962,-17.902614 -26.871685,-18.016194 -26.871685,-20.245274c0,-0.933403 -0.265379,-1.505611 -0.840817,-1.814054c-0.645416,-0.345047 -0.841355,-0.880112 -0.841355,-2.297443l0,-1.847967l4.731074,-3.236229c10.987677,-7.515674 46.995303,-32.796697 46.987767,-32.989945c-0.004306,-0.115733 -5.634333,-2.807747 -12.511052,-5.982072c-57.268663,-26.434589 -54.944843,-25.278331 -55.669927,-27.70012c-0.28422,-0.947937 -0.936095,-2.594043 -1.448552,-3.657176l-0.931789,-1.933556l2.617728,-7.538821c2.63603,-7.590497 3.262067,-8.633175 5.216078,-8.685389c0.30629,-0.008074 17.243741,8.433467 37.63866,18.759041m46.424711,112.274872c-0.142648,0.142648 0.596969,1.964238 1.643415,4.047978c2.429325,4.838195 2.502533,4.810742 -5.868492,2.197858c-8.284359,-2.585969 -7.870949,-3.030601 -4.282675,4.605652c1.805441,3.842888 2.476695,4.899022 2.989152,4.702545c0.363349,-0.139957 0.828436,-0.253537 1.034065,-0.253537c0.20509,0 -0.567901,-1.923866 -1.717699,-4.275139c-1.149798,-2.351272 -2.01753,-4.34727 -1.928711,-4.436089c0.08828,-0.088819 3.410099,0.816055 7.381639,2.010532c3.971002,1.193938 7.308969,2.082663 7.417166,1.974466c0.108197,-0.108197 -0.932865,-2.589737 -2.313592,-5.51537c-2.421789,-5.131566 -3.281984,-6.13118 -4.354268,-5.058896m-19.892152,8.330115c-2.795366,1.173483 -5.729073,2.387338 -6.518214,2.696858c-0.789679,0.30952 -1.223006,0.648645 -0.962471,0.753613c0.260535,0.104968 1.571283,-0.294986 2.913252,-0.888187c1.898028,-0.839202 2.516529,-0.95978 2.78783,-0.54314c0.191633,0.294447 1.411948,2.52245 2.71193,4.951237c1.299982,2.428249 2.407793,4.467848 2.462699,4.532444c0.054368,0.064057 0.587818,-0.068902 1.185326,-0.296062l1.085741,-0.412872l-2.137031,-3.699163c-1.175098,-2.034755 -2.400257,-4.321432 -2.722158,-5.082043l-0.585127,-1.383418l1.589047,-0.626575c3.117266,-1.229466 4.052284,-1.721467 3.664712,-1.927096c-0.215856,-0.115195 -2.680171,0.750921 -5.475536,1.924404m-12.143934,4.841963c-0.150184,0.243309 0.58405,2.094506 1.63211,4.11365c2.415329,4.652483 2.51922,4.60942 -5.222538,2.174712c-3.585044,-1.127728 -6.816967,-2.00461 -7.181931,-1.948628c-0.75469,0.115195 4.058744,11.251441 4.858112,11.239599c1.678942,-0.0253 1.61327,-0.7703 -0.419332,-4.784366c-1.12073,-2.214007 -1.938938,-4.124954 -1.817284,-4.246071c0.121116,-0.121655 3.392873,0.735849 7.270212,1.905026c3.877339,1.169715 7.222842,2.068668 7.433853,1.998151c0.692247,-0.230929 -4.59973,-10.623251 -5.481996,-10.765899c-0.43871,-0.071055 -0.920484,0.069978 -1.071207,0.313826m-19.490584,8.412474c-8.469533,6.694774 -2.627956,14.496283 7.412322,9.899783c2.886338,-1.321514 2.561746,-1.914177 -0.360119,-0.657258c-7.934468,3.413328 -12.583721,-2.852963 -6.31743,-8.514211c0.94094,-0.849968 1.899105,-1.545445 2.130033,-1.545445c0.23039,0 0.419332,-0.18948 0.419332,-0.420408c0,-0.847276 -1.236464,-0.381113 -3.284138,1.23754m-13.728675,5.105189c-0.543678,1.485694 -3.173249,10.454226 -3.173249,10.824035c0,0.227699 1.361886,-0.158259 3.026833,-0.857504l3.026833,-1.271991l0.911872,1.143877c0.951705,1.1934 2.639798,1.334433 2.334047,0.194863c-0.551752,-2.054672 -0.504382,-2.355579 0.444093,-2.833046c0.919946,-0.462934 0.889263,-0.487157 -0.492002,-0.39457c-1.435633,0.095817 -1.513147,0.01884 -3.168942,-3.154947c-1.961547,-3.759452 -2.583278,-4.53998 -2.909484,-3.650716m1.889415,5.941162c1.041062,1.969083 1.056135,1.873266 -0.416102,2.634416c-2.231233,1.153566 -2.845965,0.438172 -2.106886,-2.452472c0.890878,-3.483845 0.781604,-3.475771 2.522988,-0.181944m-18.908149,3.12857c-1.671406,3.571587 -1.282219,4.32843 0.60935,1.184787c0.359043,-0.596431 0.809057,-0.036604 2.672634,3.328278c2.270528,4.097501 2.408332,4.243379 3.583968,3.792288c0.641109,-0.246001 -4.513065,-11.071113 -5.28175,-11.093721c-0.151799,-0.004306 -0.864502,1.250459 -1.584202,2.788368" id="path3"/>
   <path stroke="null" fill-rule="evenodd" fill="#4593e3" d="m238.337163,577.989329c-1.918483,1.168638 -6.375566,14.273429 -5.702697,16.766273l0.468317,1.733848l17.93868,8.324193c30.295241,14.05865 53.645399,24.837468 54.473835,25.145911c0.680405,0.254075 0.536142,0.479083 -1.051828,1.640185c-3.613036,2.64249 -44.288218,31.082766 -48.988071,34.252247l-4.78921,3.230308l0.002691,1.710701l0.002153,1.71124l23.022337,15.444759c20.504193,13.755589 32.289085,21.557637 34.16289,22.617001c0.345047,0.194863 0.495231,0.487157 0.333205,0.649184c-0.587818,0.587818 -64.194366,26.053476 -74.391287,29.783322c-3.73469,1.366193 -3.747071,2.325434 -0.164718,12.491135c2.332432,6.61726 3.180247,8.563196 3.691627,8.473301c0.365502,-0.064057 4.037212,-1.548675 8.159475,-3.29921c4.121725,-1.750535 20.836321,-8.765595 37.142891,-15.589022c33.492713,-14.015048 52.500984,-22.059328 57.323569,-24.259339l3.284138,-1.498075l-0.129729,-1.745691l-0.130267,-1.745691l-31.439656,-21.081784l-31.439117,-21.081246l1.160026,-0.939325c4.234766,-3.426786 55.877709,-39.642733 56.529584,-39.642733c0.219624,0 0.341279,-0.881189 0.270762,-1.958317l-0.128114,-1.958317l-7.989912,-4.162635c-9.586495,-4.994301 -89.978156,-45.751304 -90.236,-45.748074c-0.099585,0.001077 -0.72293,0.332128 -1.385571,0.735849m89.900642,134.898333c1.598198,3.350886 2.811515,6.187162 2.695781,6.302896c-0.115195,0.115195 -3.382107,-0.747153 -7.259446,-1.91633c-8.600339,-2.594043 -8.284359,-2.704394 -5.827581,2.03314c2.103657,4.057667 2.100427,4.904405 -0.017764,4.610496c-0.826821,-0.114657 -6.545128,-11.852178 -6.02675,-12.370018c0.145878,-0.146416 3.439167,0.708396 7.318658,1.898566c3.878954,1.190708 7.20454,2.164484 7.390252,2.163946c0.185712,-0.000538 -0.523761,-1.580972 -1.576666,-3.512913c-2.428787,-4.454929 -2.43094,-5.030366 -0.02207,-5.261833c0.230929,-0.022608 1.727927,2.701164 3.325586,6.05205m-18.929681,1.28814c0.379498,0.988848 0.040372,1.297291 -2.268913,2.064899c-2.906793,0.965163 -2.906793,0.974314 -0.039296,6.094576c1.409256,2.516529 2.562284,4.762296 2.562284,4.989456c0,0.390802 -2.443859,1.14603 -2.706547,0.835972c-0.067825,-0.079668 -1.205781,-2.273758 -2.52891,-4.875876c-1.323667,-2.602118 -2.574127,-4.731074 -2.778679,-4.731074c-0.20509,0 -1.462547,0.481774 -2.794289,1.070669c-2.27322,1.004997 -2.454087,1.02599 -2.955778,0.340202c-0.811749,-1.110503 -0.935018,-1.031373 5.888947,-3.779369c7.237914,-2.915406 7.27075,-2.92348 7.62118,-2.009455m-13.198992,11.805347c1.619191,3.391258 2.868036,6.24153 2.775449,6.333579c-0.137804,0.137804 -9.806119,-2.637107 -14.230904,-4.084044l-1.147645,-0.37573l2.093967,4.173401c2.47185,4.925937 2.38357,4.425323 0.873114,4.951775l-1.221391,0.425791l-2.956854,-6.37718c-1.626189,-3.50753 -2.781908,-6.439623 -2.567667,-6.516061c0.214241,-0.076438 3.534983,0.832204 7.380024,2.019683c3.844503,1.187479 7.075349,2.07405 7.17924,1.97016c0.103891,-0.103891 -0.67233,-1.903411 -1.725235,-3.999532c-1.744076,-3.473079 -1.849043,-3.848271 -1.182634,-4.236381c1.438862,-0.838125 1.82482,-0.371962 4.730536,5.714539m-20.734045,1.782833c0.437096,0.700322 0.296601,0.933942 -1.126651,1.875958c-7.612567,5.037903 -3.572125,12.087413 4.778444,8.336574c2.01107,-0.903797 3.200164,-0.748768 3.200164,0.417179c0,0.735849 -4.669171,2.53214 -7.171165,2.7593c-8.495371,0.7703 -10.349797,-7.164706 -2.969773,-12.705914c2.252226,-1.691323 2.612345,-1.766146 3.288982,-0.683096m-14.463986,9.328652c1.936247,3.638336 2.076204,3.793365 3.206085,3.545211c0.872038,-0.191633 1.250459,-0.078591 1.446399,0.431174c0.332666,0.867193 -0.014534,1.45555 -0.859119,1.45555c-0.457551,0 -0.55875,0.218548 -0.341279,0.735849c0.585127,1.392031 0.718624,2.628494 0.28422,2.628494c-0.239003,0 -0.721854,0.109812 -1.071745,0.244386c-0.4231,0.162027 -0.860734,-0.188403 -1.302674,-1.042677l-0.665333,-1.287063l-2.201626,0.888187c-1.210625,0.488234 -2.714621,1.091124 -3.341735,1.339278c-1.837739,0.72616 -1.826973,0.187865 0.125423,-6.447697c2.182248,-7.416628 2.118191,-7.383254 4.721385,-2.490691m-2.830355,3.76322c-0.7956,2.679094 -0.826283,2.631186 1.109964,1.746229l1.550828,-0.708396l-0.999075,-1.63534l-0.999075,-1.634802l-0.662641,2.232309m-12.046503,4.920016c3.41279,6.6361 3.271757,6.148405 1.950243,6.750757c-1.257457,0.572746 -1.288678,0.537757 -3.606038,-4.095348c-1.798982,-3.596887 -2.296905,-3.853654 -3.056439,-1.575589c-0.081821,0.246539 -0.623884,0.306828 -1.277374,0.142648l-1.134726,-0.284758l1.687555,-3.356269c2.151565,-4.278907 1.945936,-4.370417 5.436779,2.418559" id="path4"/>
  </g>
  <path fill="#2F3238" d="m305,754.2c1.6,11.2 4.1,22 7.1,32.9c9,-0.2 27.5,-4.1 33.7,-11.1c6.1,-6.8 -2,-28 -6.4,-35.7c-10.6,5.8 -23.9,10.2 -34.4,13.9z" id="svg_30"/>
  <path fill="#C6BC9D" d="m331.1,775c1.7,-1.4 3.3,-3.4 5.3,-4.4c-5.4,2.7 -12.8,5.2 -18.9,3.3c7.3,0.3 16,-5.6 16.4,-13.3c-4.2,4.1 -12.9,5.2 -18.6,3.9c0.9,-3.6 6.9,-6.7 9.8,-8.3c3,-1.6 5.5,-2.4 8.9,-2.5c-2.5,-1.6 -8.3,-1.9 -11.3,-1.6c-2.4,0.2 -4.6,1.3 -6.8,1.9c0.7,-5.2 6.4,-9.8 10.9,-11.8c-5.4,-2 -10.7,0.9 -15,3.9c-2.6,1.8 -5.3,3.5 -8.1,4.9c-2.2,1.1 -4.4,1.9 -6.7,2.4c-9.9,2.3 -20.8,-0.1 -30.9,-0.2c-10,-0.2 -19.9,-0.7 -29.9,-2.1c-20,-2.7 -39.9,-8.9 -55.9,-21.5c-7.6,-6 -14.5,-13 -19.9,-21.1c-9.1,-13.6 -14.2,-29.1 -15.7,-45.4c-0.6,-6.7 -1.2,-13.4 -0.6,-20.1c0.2,-1.9 0.4,-3.9 0.7,-5.9c-2.4,1.4 -4.9,2.3 -7.1,2.6c4,-5.2 10.2,-12.9 8.5,-20.1c-0.2,7.1 -9.1,8 -10.3,13.7c0.1,-4.7 0.1,-9.4 1.8,-14.1c-5.2,3.6 -8.8,7.7 -9.7,14.2c-3.4,-6.2 -4.9,-10.9 -5,-18.1c0,7.1 -5.6,16.3 -10.9,20.8c1.3,-3.6 3.2,-7 3.6,-10.9c0.5,-4.1 -1.3,-7.7 -1.1,-11.7c-10.3,9.5 -9.7,24.5 -4.3,36.6c-3.4,-1.1 -7.7,-5.8 -7.2,-9.7c-0.4,2.6 -1.6,5 -3.2,7.1c0.8,5.3 2.3,10.5 3.3,16c1.3,6.8 3,13.4 5.1,20c2.4,7.4 6.4,16.6 9.7,23.6c8.3,17.5 16.9,32.2 30.9,45.6c15.5,14.7 37.1,24.7 57.9,29.3c21.7,4.9 42.3,6.8 64.8,8c10.7,0.6 25.2,-4.3 34.6,2.3c2.9,2 3,5.1 2.1,8.3c6.5,-0.5 6.8,-9.5 4.9,-13.9c5.8,2.9 13.3,-2.4 16.5,-7c-1.7,0.8 -3.9,0.9 -5.8,0.6c1.8,-1.9 5,-3.6 7.2,-5.3z" id="svg_31"/>
  <path opacity="0.1" d="m277,340c-16.9,-1.1 -22.1,-8 -23.6,-11.8l-0.7,5.2s1.1,12.6 24.3,14.1c23.2,-1.4 24.3,-14.1 24.3,-14.1l-0.7,-5.2c-1.5,3.7 -6.7,10.7 -23.6,11.8z" id="svg_33"/>
 </g>
</svg>